<svg width="97" height="96" viewBox="0 0 97 96" fill="none" xmlns="http://www.w3.org/2000/svg">
<path d="M46.7452 90.0591V8.43291C43.843 1.17724 37.071 0.572605 34.0477 1.17724C23.8897 1.17724 21.9549 9.64219 22.2573 13.8747C11.3738 14.6002 10.4668 25.0605 11.3738 30.1999C7.02038 32.3766 7.14127 37.1532 7.7459 39.2695C-1.68647 44.3484 0.792662 52.8739 3.21127 56.5017C2.48571 65.9341 7.1414 73.1292 9.55995 75.5478C8.10881 82.8035 15.0017 84.6174 18.6295 84.6174C20.8062 92.5986 27.3968 91.5707 30.42 90.0591C36.9501 99.4915 44.0244 93.9893 46.7452 90.0591Z" fill="#131313" stroke="#131313" stroke-linejoin="round"/>
<path d="M50.7452 90.1124V8.43736C53.6475 1.17735 60.4198 0.572349 63.4432 1.17735C73.6016 1.17735 75.5365 9.64736 75.2341 13.8824C86.118 14.6084 87.025 25.0749 86.118 30.2174C90.4716 32.3954 90.3507 37.1749 89.746 39.2924C99.1788 44.3744 96.6995 52.9049 94.2808 56.5349C95.0064 65.9729 90.3506 73.1724 87.9319 75.5924C89.3831 82.8524 82.49 84.6674 78.862 84.6674C76.6852 92.6534 70.0944 91.6249 67.0711 90.1124C60.5407 99.5504 53.4662 94.0449 50.7452 90.1124Z" fill="#131313" stroke="#131313" stroke-linejoin="round"/>
</svg>
